<svg width="32" height="33" viewBox="0 0 32 33" fill="none" xmlns="http://www.w3.org/2000/svg">
<path d="M29.7143 0.0556641H2.27857C1.02143 0.0556641 0 1.09138 0 2.36281V29.7485C0 31.02 1.02143 32.0557 2.27857 32.0557H29.7143C30.9714 32.0557 32 31.02 32 29.7485V2.36281C32 1.09138 30.9714 0.0556641 29.7143 0.0556641ZM9.67143 27.4842H4.92857V12.2128H9.67857V27.4842H9.67143ZM7.3 10.1271C5.77857 10.1271 4.55 8.89138 4.55 7.37709C4.55 5.86281 5.77857 4.62709 7.3 4.62709C8.81429 4.62709 10.05 5.86281 10.05 7.37709C10.05 8.89852 8.82143 10.1271 7.3 10.1271ZM27.45 27.4842H22.7071V20.0557C22.7071 18.2842 22.6714 16.0057 20.2429 16.0057C17.7714 16.0057 17.3929 17.9342 17.3929 19.9271V27.4842H12.65V12.2128H17.2V14.2985H17.2643C17.9 13.0985 19.45 11.8342 21.7571 11.8342C26.5571 11.8342 27.45 14.9985 27.45 19.1128V27.4842Z" fill="white"/>
</svg>
