<svg width="35" height="32" viewBox="0 0 35 32" fill="none" xmlns="http://www.w3.org/2000/svg">
<path d="M9.72222 28C8.16667 28 6.61111 26.6 5.83333 26C1.94444 23.2 0.777778 22.2 0 21.6V30C0 31.1044 0.870746 32 1.94444 32H17.5C18.5737 32 19.4444 31.1044 19.4444 30V21.6C18.6667 22.2 17.5 23.2 13.6111 26C12.8333 26.6 11.2778 28 9.72222 28ZM17.5 16H1.94444C0.870746 16 0 16.8956 0 18V19C1.55556 20.2 1.36111 20.2 7 24.4C7.58333 24.8 8.75 26 9.72222 26C10.6944 26 11.8611 24.8 12.4444 24.6C18.0833 20.4 17.8889 20.4 19.4444 19.2V18C19.4444 16.8956 18.5737 16 17.5 16ZM33.0556 10H13.6111C12.5374 10 11.6667 10.8956 11.6667 12V14H17.5C19.518 14 21.1817 15.5888 21.3713 17.6138L21.3889 17.6V26H33.0556C34.1293 26 35 25.1044 35 24V12C35 10.8956 34.1293 10 33.0556 10ZM31.1111 18H27.2222V14H31.1111V18ZM9.72222 12C9.72222 9.79437 11.4668 8 13.6111 8H27.2222V2C27.2222 0.895625 26.3515 0 25.2778 0H5.83333C4.75964 0 3.88889 0.895625 3.88889 2V14H9.72222V12Z" fill="white"/>
</svg>
