<svg width="1243" height="616" viewBox="0 0 1243 616" fill="none" xmlns="http://www.w3.org/2000/svg">
<path fill-rule="evenodd" clip-rule="evenodd" d="M57.8564 0C26.3762 0 0.856445 25.5198 0.856445 57V258C0.856445 289.48 26.3762 315 57.8565 315H390.907C392.394 315.178 393.907 315.269 395.442 315.269C416.344 315.269 433.289 332.214 433.289 353.116V386.907C433.289 422.805 462.39 451.907 498.289 451.907H571.598C572.317 451.942 573.041 451.959 573.768 451.959C598.204 451.959 618.013 471.768 618.013 496.204V550.877C618.013 586.775 647.115 615.877 683.013 615.877H745.718H930.962H1185.71C1217.19 615.877 1242.71 590.357 1242.71 558.877V269.32C1242.71 267.658 1242.64 266.013 1242.5 264.388C1242.74 262.291 1242.86 260.159 1242.86 258V57C1242.86 25.5198 1217.34 0 1185.86 0H57.8564Z" fill="#1F2227"/>
</svg>
